<?xml version="1.0" encoding="UTF-8"?>
<svg id="Layer_2" data-name="Layer 2" xmlns="http://www.w3.org/2000/svg" viewBox="0 0 1447.44 672.35">
  <defs>
    <style>
      .cls-1 {
        fill: none;
        stroke: #f27200;
        stroke-miterlimit: 10;
        stroke-width: 20px;
      }

      .cls-2 {
        fill: #f27200;
        stroke-width: 0px;
      }
    </style>
  </defs>
  <g id="Layer_1-2" data-name="Layer 1">
    <g>
      <g>
        <path class="cls-2" d="M705.86,210.01h-13.68l-11.16-31.5h-60.66l-11.16,31.5h-13.68l45.36-126h19.62l45.36,126ZM676.52,166.27l-24.48-68.94h-2.52l-24.66,68.94h51.66Z"/>
        <path class="cls-2" d="M786.77,126.58c5.82,4.38,10.14,10.05,12.96,17.01,2.82,6.96,4.23,14.46,4.23,22.5s-1.38,15.54-4.14,22.5c-2.76,6.96-7.05,12.63-12.87,17.01-5.82,4.38-12.93,6.57-21.33,6.57s-15.39-1.95-20.61-5.85c-5.22-3.9-9.21-9.03-11.97-15.39h-2.34c1.68,5.88,2.52,11.64,2.52,17.28v1.8h-14.76v-126h14.76v36.36c0,7.44-.84,14.46-2.52,21.06h2.34c.36-.72.84-1.68,1.44-2.88,2.88-5.64,6.84-10.14,11.88-13.5,5.04-3.36,11.34-5.04,18.9-5.04,8.52,0,15.69,2.19,21.51,6.57ZM781.82,189.67c4.92-6.12,7.38-13.98,7.38-23.58s-2.46-17.31-7.38-23.49c-4.92-6.18-11.76-9.27-20.52-9.27-5.76,0-10.77,1.44-15.03,4.32-4.26,2.88-7.5,6.81-9.72,11.79-2.22,4.98-3.33,10.53-3.33,16.65,0,9.48,2.49,17.31,7.47,23.49,4.98,6.18,11.85,9.27,20.61,9.27s15.6-3.06,20.52-9.18Z"/>
        <path class="cls-2" d="M881.81,126.76c6.18,4.5,10.71,10.26,13.59,17.28s4.32,14.37,4.32,22.05-1.44,15.03-4.32,22.05-7.41,12.78-13.59,17.28c-6.18,4.5-14.01,6.75-23.49,6.75s-17.31-2.25-23.49-6.75c-6.18-4.5-10.71-10.26-13.59-17.28s-4.32-14.37-4.32-22.05,1.44-15.03,4.32-22.05,7.41-12.78,13.59-17.28c6.18-4.5,14.07-6.75,23.67-6.75s17.13,2.25,23.31,6.75ZM874.43,195.79c4.26-3.36,7.35-7.71,9.27-13.05,1.92-5.34,2.88-10.89,2.88-16.65s-.96-11.31-2.88-16.65c-1.92-5.34-5.01-9.69-9.27-13.05-4.26-3.36-9.63-5.04-16.11-5.04s-11.85,1.68-16.11,5.04c-4.26,3.36-7.38,7.71-9.36,13.05-1.98,5.34-2.97,10.89-2.97,16.65s.99,11.31,2.97,16.65c1.98,5.34,5.1,9.69,9.36,13.05,4.26,3.36,9.63,5.04,16.11,5.04s11.85-1.68,16.11-5.04Z"/>
        <path class="cls-2" d="M916.46,172.57v-50.4h14.76v48.78c0,8.04,1.56,14.58,4.68,19.62,3.12,5.04,8.16,8.1,15.12,9.18,5.52.96,10.47.39,14.85-1.71,4.38-2.1,7.86-5.37,10.44-9.81,2.58-4.44,4.29-9.66,5.13-15.66.84-7.08,1.26-14.34,1.26-21.78v-28.62h14.76v87.84h-14.76v-6.48c0-2.88.33-6.09.99-9.63.66-3.54,1.47-6.81,2.43-9.81h-2.52c-1.68,6.84-4.56,12.57-8.64,17.19-4.08,4.62-9,7.83-14.76,9.63-5.76,1.8-11.76,1.92-18,.36-5.76-1.44-10.59-4.14-14.49-8.1-3.9-3.96-6.75-8.61-8.55-13.95-1.8-5.34-2.7-10.89-2.7-16.65Z"/>
        <path class="cls-2" d="M1023.74,183.01v-47.52h-12.78v-13.32h12.78v-38.16h14.76v38.16h24.84v13.32h-24.84v47.34c0,3.84,1.32,7.11,3.96,9.81,2.64,2.7,5.82,4.05,9.54,4.05h11.34v13.32h-12.78c-5.52,0-10.29-1.23-14.31-3.69-4.02-2.46-7.11-5.76-9.27-9.9-2.16-4.14-3.24-8.61-3.24-13.41Z"/>
        <path class="cls-2" d="M1239.73,84.01h24.48v126h-14.76v-92.16c0-6.48.54-13.32,1.62-20.52h-2.52l-41.04,112.68h-20.52l-41.04-112.68h-2.52c.48,3,.87,6.33,1.17,9.99.3,3.66.45,7.17.45,10.53v92.16h-14.76v-126h24.66l41.04,112.68h2.52l41.22-112.68Z"/>
        <path class="cls-2" d="M1301.74,183.64c1.86,4.62,4.86,8.49,9,11.61,4.14,3.12,9.45,4.68,15.93,4.68,6.84,0,12.39-1.68,16.65-5.04,4.26-3.36,7.41-8.16,9.45-14.4h14.4c-2.16,8.76-6.48,16.23-12.96,22.41-6.48,6.18-15.6,9.27-27.36,9.27-9.6,0-17.55-2.25-23.85-6.75s-10.92-10.29-13.86-17.37c-2.94-7.08-4.41-14.46-4.41-22.14s1.47-15,4.41-21.96c2.94-6.96,7.56-12.69,13.86-17.19s14.25-6.75,23.85-6.75,17.43,2.22,23.85,6.66c6.42,4.44,11.13,10.38,14.13,17.82,3,7.44,4.32,15.66,3.96,24.66h-70.2c.24,5.04,1.29,9.87,3.15,14.49ZM1312.09,136.21c-3.96,2.64-7.02,6.06-9.18,10.26-2.16,4.2-3.48,8.64-3.96,13.32h55.62c-.36-4.32-1.62-8.58-3.78-12.78-2.16-4.2-5.28-7.71-9.36-10.53-4.08-2.82-9-4.23-14.76-4.23s-10.62,1.32-14.58,3.96Z"/>
      </g>
      <polyline class="cls-1" points="541.73 274.02 230.53 662.35 0 662.35"/>
      <path class="cls-2" d="M1427.44,20v254.02h-885.71V20h885.71M1447.44,0h-925.71v294.02h925.71V0h0Z"/>
    </g>
  </g>
</svg>