<?xml version="1.0" encoding="UTF-8"?>
<svg id="Layer_2" data-name="Layer 2" xmlns="http://www.w3.org/2000/svg" viewBox="0 0 1621.2 672.35">
  <defs>
    <style>
      .cls-1 {
        fill: none;
        stroke: #f27200;
        stroke-miterlimit: 10;
        stroke-width: 20px;
      }

      .cls-2 {
        fill: #f27200;
        stroke-width: 0px;
      }
    </style>
  </defs>
  <g id="Layer_1-2" data-name="Layer 1">
    <g>
      <g>
        <path class="cls-2" d="M705.26,148.81v61.2h-13.68v-10.8c0-6.24,1.8-15.72,5.4-28.44h-2.52c-.84,5.04-2.97,10.71-6.39,17.01s-8.76,11.94-16.02,16.92c-7.26,4.98-16.41,7.47-27.45,7.47s-19.95-2.7-28.17-8.1c-8.22-5.4-14.64-12.99-19.26-22.77-4.62-9.78-6.93-21.21-6.93-34.29,0-11.04,2.07-21.51,6.21-31.41,4.14-9.9,10.68-18,19.62-24.3,8.94-6.3,20.25-9.45,33.93-9.45,10.92,0,20.19,2.07,27.81,6.21,7.62,4.14,13.56,9.12,17.82,14.94,4.26,5.82,7.41,11.79,9.45,17.91h-15.66c-3-7.2-7.77-13.29-14.31-18.27-6.54-4.98-14.97-7.47-25.29-7.47s-18.66,2.55-25.38,7.65c-6.72,5.1-11.64,11.58-14.76,19.44-3.12,7.86-4.68,16.11-4.68,24.75s1.53,16.71,4.59,24.57c3.06,7.86,7.92,14.34,14.58,19.44,6.66,5.1,14.97,7.71,24.93,7.83,8.52-.12,15.84-2.28,21.96-6.48,6.12-4.2,10.77-9.57,13.95-16.11,3.18-6.54,4.77-13.23,4.77-20.07,0-.84-.3-1.56-.9-2.16-.6-.6-1.38-.9-2.34-.9h-38.88v-13.5h48.42c2.76,0,4.98.87,6.66,2.61,1.68,1.74,2.52,3.93,2.52,6.57Z"/>
        <path class="cls-2" d="M737.75,183.64c1.86,4.62,4.86,8.49,9,11.61,4.14,3.12,9.45,4.68,15.93,4.68,6.84,0,12.39-1.68,16.65-5.04,4.26-3.36,7.41-8.16,9.45-14.4h14.4c-2.16,8.76-6.48,16.23-12.96,22.41-6.48,6.18-15.6,9.27-27.36,9.27-9.6,0-17.55-2.25-23.85-6.75-6.3-4.5-10.92-10.29-13.86-17.37-2.94-7.08-4.41-14.46-4.41-22.14s1.47-15,4.41-21.96c2.94-6.96,7.56-12.69,13.86-17.19,6.3-4.5,14.25-6.75,23.85-6.75s17.43,2.22,23.85,6.66c6.42,4.44,11.13,10.38,14.13,17.82,3,7.44,4.32,15.66,3.96,24.66h-70.2c.24,5.04,1.29,9.87,3.15,14.49ZM748.1,136.21c-3.96,2.64-7.02,6.06-9.18,10.26-2.16,4.2-3.48,8.64-3.96,13.32h55.62c-.36-4.32-1.62-8.58-3.78-12.78-2.16-4.2-5.28-7.71-9.36-10.53-4.08-2.82-9-4.23-14.76-4.23s-10.62,1.32-14.58,3.96Z"/>
        <path class="cls-2" d="M824.78,183.01v-47.52h-12.78v-13.32h12.78v-38.16h14.76v38.16h24.84v13.32h-24.84v47.34c0,3.84,1.32,7.11,3.96,9.81,2.64,2.7,5.82,4.05,9.54,4.05h11.34v13.32h-12.78c-5.52,0-10.29-1.23-14.31-3.69-4.02-2.46-7.11-5.76-9.27-9.9-2.16-4.14-3.24-8.61-3.24-13.41Z"/>
        <path class="cls-2" d="M946.1,127.93v82.08h-14.76v-71.28c0-.84-.3-1.59-.9-2.25-.6-.66-1.38-.99-2.34-.99h-7.38v-13.32h19.44c1.68,0,3.09.57,4.23,1.71,1.14,1.14,1.71,2.49,1.71,4.05ZM938.36,97.33c2.16,0,4.05-.81,5.67-2.43,1.62-1.62,2.43-3.51,2.43-5.67s-.81-4.05-2.43-5.67c-1.62-1.62-3.51-2.43-5.67-2.43-2.28,0-4.26.81-5.94,2.43-1.68,1.62-2.52,3.51-2.52,5.67,0,2.28.84,4.2,2.52,5.76,1.68,1.56,3.66,2.34,5.94,2.34Z"/>
        <path class="cls-2" d="M1048.88,159.61v50.4h-14.76v-48.78c0-8.04-1.56-14.58-4.68-19.62-3.12-5.04-8.16-8.1-15.12-9.18-5.64-.96-10.62-.39-14.94,1.71-4.32,2.1-7.77,5.37-10.35,9.81-2.58,4.44-4.29,9.66-5.13,15.66-.84,7.08-1.26,14.34-1.26,21.78v28.62h-14.76v-87.84h14.76v6.48c0,2.88-.33,6.09-.99,9.63-.66,3.54-1.47,6.81-2.43,9.81h2.52c1.56-6.84,4.38-12.57,8.46-17.19,4.08-4.62,9-7.83,14.76-9.63,5.76-1.8,11.82-1.92,18.18-.36,5.76,1.44,10.56,4.14,14.4,8.1,3.84,3.96,6.69,8.61,8.55,13.95,1.86,5.34,2.79,10.89,2.79,16.65Z"/>
        <path class="cls-2" d="M1123.57,183.01v-47.52h-12.78v-13.32h12.78v-38.16h14.76v38.16h24.84v13.32h-24.84v47.34c0,3.84,1.32,7.11,3.96,9.81,2.64,2.7,5.82,4.05,9.54,4.05h11.34v13.32h-12.78c-5.52,0-10.29-1.23-14.31-3.69-4.02-2.46-7.11-5.76-9.27-9.9-2.16-4.14-3.24-8.61-3.24-13.41Z"/>
        <path class="cls-2" d="M1237.24,126.76c6.18,4.5,10.71,10.26,13.59,17.28,2.88,7.02,4.32,14.37,4.32,22.05s-1.44,15.03-4.32,22.05c-2.88,7.02-7.41,12.78-13.59,17.28-6.18,4.5-14.01,6.75-23.49,6.75s-17.31-2.25-23.49-6.75c-6.18-4.5-10.71-10.26-13.59-17.28-2.88-7.02-4.32-14.37-4.32-22.05s1.44-15.03,4.32-22.05c2.88-7.02,7.41-12.78,13.59-17.28,6.18-4.5,14.07-6.75,23.67-6.75s17.13,2.25,23.31,6.75ZM1229.86,195.79c4.26-3.36,7.35-7.71,9.27-13.05,1.92-5.34,2.88-10.89,2.88-16.65s-.96-11.31-2.88-16.65c-1.92-5.34-5.01-9.69-9.27-13.05-4.26-3.36-9.63-5.04-16.11-5.04s-11.85,1.68-16.11,5.04c-4.26,3.36-7.38,7.71-9.36,13.05-1.98,5.34-2.97,10.89-2.97,16.65s.99,11.31,2.97,16.65c1.98,5.34,5.1,9.69,9.36,13.05,4.26,3.36,9.63,5.04,16.11,5.04s11.85-1.68,16.11-5.04Z"/>
        <path class="cls-2" d="M1271.89,172.57v-50.4h14.76v48.78c0,8.04,1.56,14.58,4.68,19.62,3.12,5.04,8.16,8.1,15.12,9.18,5.52.96,10.47.39,14.85-1.71,4.38-2.1,7.86-5.37,10.44-9.81,2.58-4.44,4.29-9.66,5.13-15.66.84-7.08,1.26-14.34,1.26-21.78v-28.62h14.76v87.84h-14.76v-6.48c0-2.88.33-6.09.99-9.63.66-3.54,1.47-6.81,2.43-9.81h-2.52c-1.68,6.84-4.56,12.57-8.64,17.19-4.08,4.62-9,7.83-14.76,9.63-5.76,1.8-11.76,1.92-18,.36-5.76-1.44-10.59-4.14-14.49-8.1-3.9-3.96-6.75-8.61-8.55-13.95-1.8-5.34-2.7-10.89-2.7-16.65Z"/>
        <path class="cls-2" d="M1436.41,182.83h15.66c-2.52,8.52-7.05,15.54-13.59,21.06-6.54,5.52-15.15,8.28-25.83,8.28-9.72,0-17.73-2.25-24.03-6.75s-10.89-10.29-13.77-17.37c-2.88-7.08-4.32-14.46-4.32-22.14s1.44-14.85,4.32-21.87c2.88-7.02,7.47-12.78,13.77-17.28s14.31-6.75,24.03-6.75c7.2,0,13.53,1.35,18.99,4.05,5.46,2.7,9.84,6.27,13.14,10.71,3.3,4.44,5.73,9.36,7.29,14.76h-15.48c-2.04-4.68-5.04-8.55-9-11.61-3.96-3.06-8.94-4.59-14.94-4.59s-11.43,1.62-15.57,4.86c-4.14,3.24-7.14,7.35-9,12.33-1.86,4.98-2.79,10.11-2.79,15.39s.93,10.77,2.79,15.75c1.86,4.98,4.83,9.09,8.91,12.33,4.08,3.24,9.3,4.86,15.66,4.86,6,0,10.98-1.5,14.94-4.5,3.96-3,6.9-6.84,8.82-11.52Z"/>
        <path class="cls-2" d="M1549.8,159.61v50.4h-14.76v-48.78c0-8.04-1.56-14.58-4.68-19.62-3.12-5.04-8.16-8.1-15.12-9.18-5.64-.96-10.62-.39-14.94,1.71-4.32,2.1-7.77,5.37-10.35,9.81-2.58,4.44-4.29,9.66-5.13,15.66-.48,3.36-.78,6.72-.9,10.08-.24,3.48-.36,7.38-.36,11.7v28.62h-14.76v-126h14.76v43.56c0,5.64-1.14,12.48-3.42,20.52h2.52c1.56-6.84,4.38-12.57,8.46-17.19,4.08-4.62,9-7.83,14.76-9.63,5.76-1.8,11.82-1.92,18.18-.36,5.76,1.44,10.56,4.14,14.4,8.1,3.84,3.96,6.69,8.61,8.55,13.95,1.86,5.34,2.79,10.89,2.79,16.65Z"/>
      </g>
      <polyline class="cls-1" points="541.73 274.02 230.53 662.35 0 662.35"/>
      <path class="cls-2" d="M1601.2,20v254.02H541.73V20h1059.47M1621.2,0H521.73v294.02h1099.47V0h0Z"/>
    </g>
  </g>
</svg>