<?xml version="1.0" encoding="UTF-8"?>
<svg id="Layer_2" data-name="Layer 2" xmlns="http://www.w3.org/2000/svg" viewBox="0 0 1604.3 672.35">
  <defs>
    <style>
      .cls-1 {
        fill: none;
        stroke: #f27200;
        stroke-miterlimit: 10;
        stroke-width: 20px;
      }

      .cls-2 {
        fill: #f27200;
        stroke-width: 0px;
      }
    </style>
  </defs>
  <g id="Layer_1-2" data-name="Layer 1">
    <g>
      <g>
        <path class="cls-2" d="M716.16,84.01h24.48v126h-14.76v-92.16c0-6.48.54-13.32,1.62-20.52h-2.52l-41.04,112.68h-20.52l-41.04-112.68h-2.52c.48,3,.87,6.33,1.17,9.99.3,3.66.45,7.17.45,10.53v92.16h-14.76v-126h24.66l41.04,112.68h2.52l41.22-112.68Z"/>
        <path class="cls-2" d="M804.54,183.73l23.58-61.56h14.4l-44.1,117.72c-2.16,5.52-5.7,10.26-10.62,14.22-4.92,3.96-11.28,5.94-19.08,5.94h-10.98v-12.6h11.7c4.2,0,7.59-1.14,10.17-3.42,2.58-2.28,4.47-4.98,5.67-8.1l9.72-25.92h-5.94l-32.94-87.84h14.4l23.58,61.56c2.16,5.4,3.54,9.72,4.14,12.96h2.16c.6-3.24,1.98-7.56,4.14-12.96Z"/>
        <path class="cls-2" d="M979.4,87.88c5.7,2.58,10.35,6.48,13.95,11.7,3.6,5.22,5.4,11.55,5.4,18.99s-1.83,13.8-5.49,19.08c-3.66,5.28-8.34,9.21-14.04,11.79-5.7,2.58-11.73,3.87-18.09,3.87h-39.06v56.7h-14.76v-126h53.82c6.48,0,12.57,1.29,18.27,3.87ZM971.66,137.47c3.66-1.68,6.63-4.11,8.91-7.29,2.28-3.18,3.42-7.05,3.42-11.61s-1.14-8.43-3.42-11.61c-2.28-3.18-5.25-5.58-8.91-7.2-3.66-1.62-7.65-2.43-11.97-2.43h-37.62v42.66h37.62c4.32,0,8.31-.84,11.97-2.52Z"/>
        <path class="cls-2" d="M1067.15,122.17v13.32c-7.8,0-14.28,1.77-19.44,5.31-5.16,3.54-8.91,8.07-11.25,13.59-2.34,5.52-3.51,11.4-3.51,17.64v37.98h-14.76v-72c0-.84-.21-1.47-.63-1.89-.42-.42-1.05-.63-1.89-.63h-8.82v-13.32h17.82c1.92,0,3.54.57,4.86,1.71,1.32,1.14,1.98,2.61,1.98,4.41,0,4.56-.84,11.7-2.52,21.42h2.52c1.56-5.52,3.93-10.29,7.11-14.31,3.18-4.02,7.17-7.2,11.97-9.54,4.8-2.34,10.32-3.57,16.56-3.69Z"/>
        <path class="cls-2" d="M1137.08,126.76c6.18,4.5,10.71,10.26,13.59,17.28s4.32,14.37,4.32,22.05-1.44,15.03-4.32,22.05-7.41,12.78-13.59,17.28c-6.18,4.5-14.01,6.75-23.49,6.75s-17.31-2.25-23.49-6.75c-6.18-4.5-10.71-10.26-13.59-17.28s-4.32-14.37-4.32-22.05,1.44-15.03,4.32-22.05,7.41-12.78,13.59-17.28c6.18-4.5,14.07-6.75,23.67-6.75s17.13,2.25,23.31,6.75ZM1129.7,195.79c4.26-3.36,7.35-7.71,9.27-13.05,1.92-5.34,2.88-10.89,2.88-16.65s-.96-11.31-2.88-16.65c-1.92-5.34-5.01-9.69-9.27-13.05-4.26-3.36-9.63-5.04-16.11-5.04s-11.85,1.68-16.11,5.04c-4.26,3.36-7.38,7.71-9.36,13.05-1.98,5.34-2.97,10.89-2.97,16.65s.99,11.31,2.97,16.65c1.98,5.34,5.1,9.69,9.36,13.05,4.26,3.36,9.63,5.04,16.11,5.04s11.85-1.68,16.11-5.04Z"/>
        <path class="cls-2" d="M1191.53,128.47v106.02c0,4.44-1.05,8.61-3.15,12.51-2.1,3.9-5.07,7.05-8.91,9.45-3.84,2.4-8.34,3.6-13.5,3.6h-13.32v-13.32h10.62c3.72,0,6.9-1.35,9.54-4.05,2.64-2.7,3.96-5.97,3.96-9.81v-94.14c0-.84-.3-1.59-.9-2.25-.6-.66-1.38-.99-2.34-.99h-7.92v-13.32h19.8c1.68,0,3.12.63,4.32,1.89,1.2,1.26,1.8,2.73,1.8,4.41ZM1183.07,97.33c2.16,0,4.05-.81,5.67-2.43,1.62-1.62,2.43-3.51,2.43-5.67s-.81-4.05-2.43-5.67c-1.62-1.62-3.51-2.43-5.67-2.43-2.28,0-4.23.81-5.85,2.43-1.62,1.62-2.43,3.51-2.43,5.67,0,2.28.81,4.2,2.43,5.76,1.62,1.56,3.57,2.34,5.85,2.34Z"/>
        <path class="cls-2" d="M1225.64,183.64c1.86,4.62,4.86,8.49,9,11.61,4.14,3.12,9.45,4.68,15.93,4.68,6.84,0,12.39-1.68,16.65-5.04,4.26-3.36,7.41-8.16,9.45-14.4h14.4c-2.16,8.76-6.48,16.23-12.96,22.41-6.48,6.18-15.6,9.27-27.36,9.27-9.6,0-17.55-2.25-23.85-6.75s-10.92-10.29-13.86-17.37c-2.94-7.08-4.41-14.46-4.41-22.14s1.47-15,4.41-21.96c2.94-6.96,7.56-12.69,13.86-17.19s14.25-6.75,23.85-6.75,17.43,2.22,23.85,6.66c6.42,4.44,11.13,10.38,14.13,17.82,3,7.44,4.32,15.66,3.96,24.66h-70.2c.24,5.04,1.29,9.87,3.15,14.49ZM1235.99,136.21c-3.96,2.64-7.02,6.06-9.18,10.26-2.16,4.2-3.48,8.64-3.96,13.32h55.62c-.36-4.32-1.62-8.58-3.78-12.78-2.16-4.2-5.28-7.71-9.36-10.53-4.08-2.82-9-4.23-14.76-4.23s-10.62,1.32-14.58,3.96Z"/>
        <path class="cls-2" d="M1371.71,182.83h15.66c-2.52,8.52-7.05,15.54-13.59,21.06-6.54,5.52-15.15,8.28-25.83,8.28-9.72,0-17.73-2.25-24.03-6.75-6.3-4.5-10.89-10.29-13.77-17.37-2.88-7.08-4.32-14.46-4.32-22.14s1.44-14.85,4.32-21.87,7.47-12.78,13.77-17.28c6.3-4.5,14.31-6.75,24.03-6.75,7.2,0,13.53,1.35,18.99,4.05,5.46,2.7,9.84,6.27,13.14,10.71,3.3,4.44,5.73,9.36,7.29,14.76h-15.48c-2.04-4.68-5.04-8.55-9-11.61s-8.94-4.59-14.94-4.59-11.43,1.62-15.57,4.86c-4.14,3.24-7.14,7.35-9,12.33-1.86,4.98-2.79,10.11-2.79,15.39s.93,10.77,2.79,15.75c1.86,4.98,4.83,9.09,8.91,12.33,4.08,3.24,9.3,4.86,15.66,4.86,6,0,10.98-1.5,14.94-4.5,3.96-3,6.9-6.84,8.82-11.52Z"/>
        <path class="cls-2" d="M1406.27,183.01v-47.52h-12.78v-13.32h12.78v-38.16h14.76v38.16h24.84v13.32h-24.84v47.34c0,3.84,1.32,7.11,3.96,9.81,2.64,2.7,5.82,4.05,9.54,4.05h11.34v13.32h-12.78c-5.52,0-10.29-1.23-14.31-3.69-4.02-2.46-7.11-5.76-9.27-9.9-2.16-4.14-3.24-8.61-3.24-13.41Z"/>
        <path class="cls-2" d="M1527.05,183.73c0,5.64-1.5,10.62-4.5,14.94-3,4.32-7.2,7.65-12.6,9.99-5.4,2.34-11.58,3.51-18.54,3.51s-13.14-1.17-18.54-3.51c-5.4-2.34-9.63-5.64-12.69-9.9-3.06-4.26-4.59-9.21-4.59-14.85h13.68c.12,5.28,2.25,9.27,6.39,11.97,4.14,2.7,9.39,4.05,15.75,4.05,3.6,0,6.99-.54,10.17-1.62,3.18-1.08,5.79-2.82,7.83-5.22,2.04-2.4,3.06-5.4,3.06-9s-1.02-6.6-3.06-8.64c-2.04-2.04-4.62-3.48-7.74-4.32-3.12-.84-7.38-1.62-12.78-2.34-6.6-.72-12-1.65-16.2-2.79-4.2-1.14-7.8-3.27-10.8-6.39-3-3.12-4.5-7.62-4.5-13.5,0-5.28,1.44-9.9,4.32-13.86,2.88-3.96,6.9-6.99,12.06-9.09,5.16-2.1,11.1-3.15,17.82-3.15s12.66,1.05,17.82,3.15c5.16,2.1,9.18,5.13,12.06,9.09,2.88,3.96,4.32,8.58,4.32,13.86v1.44h-13.68v-1.44c0-4.56-1.98-8.01-5.94-10.35s-8.76-3.51-14.4-3.51-10.05,1.17-13.95,3.51c-3.9,2.34-5.85,5.73-5.85,10.17,0,2.76.87,4.92,2.61,6.48,1.74,1.56,4.02,2.67,6.84,3.33,2.82.66,6.51,1.29,11.07,1.89,7.08.96,12.93,2.1,17.55,3.42,4.62,1.32,8.61,3.75,11.97,7.29,3.36,3.54,5.04,8.67,5.04,15.39Z"/>
      </g>
      <polyline class="cls-1" points="541.73 274.02 230.53 662.35 0 662.35"/>
      <path class="cls-2" d="M1584.3,20v254.02H541.73V20h1042.57M1604.3,0H521.73v294.02h1082.57V0h0Z"/>
    </g>
  </g>
</svg>